<?xml version="1.0" standalone="no"?>
<!DOCTYPE svg PUBLIC "-//W3C//DTD SVG 20010904//EN"
 "http://www.w3.org/TR/2001/REC-SVG-20010904/DTD/svg10.dtd">
<svg version="1.0" xmlns="http://www.w3.org/2000/svg"
 width="32.000000pt" height="32.000000pt" viewBox="0 0 32.000000 32.000000"
 preserveAspectRatio="xMidYMid meet">

<g transform="translate(0.000000,32.000000) scale(0.100000,-0.100000)"
fill="#000000" stroke="none">
<path d="M80 288 c-54 -37 -75 -73 -75 -128 0 -116 140 -192 235 -127 54 36
75 72 75 127 0 83 -69 150 -155 150 -32 0 -57 -7 -80 -22z m111 -20 c-10 -27
-40 -36 -52 -16 -17 26 -9 38 26 38 31 0 34 -2 26 -22z m-91 -13 c0 -10 -10
-15 -27 -15 -27 1 -27 1 -9 15 25 19 36 19 36 0z m152 -13 c-27 -4 -37 2 -27
17 4 8 13 7 28 -1 l22 -13 -23 -3z m-194 -46 c9 -21 8 -25 -11 -30 -27 -7 -29
-4 -21 28 8 32 18 33 32 2z m187 14 c9 -15 -65 -136 -84 -137 -18 -2 -96 129
-84 141 10 10 161 7 168 -4z m54 -32 c1 -5 -8 -8 -19 -8 -23 0 -24 4 -8 33 11
21 11 21 19 2 4 -11 8 -23 8 -27z m-202 -54 c3 -9 -3 -24 -15 -37 -22 -21 -22
-21 -37 -2 -19 27 -19 43 3 48 33 9 43 7 49 -9z m171 10 c26 -7 27 -21 6 -49
-15 -20 -15 -20 -34 3 -11 13 -16 30 -13 37 6 17 9 17 41 9z m-128 -84 c8 -15
8 -20 -2 -20 -22 0 -41 17 -34 29 11 17 24 13 36 -9z m79 6 c9 -11 7 -15 -11
-20 -36 -9 -39 -7 -26 14 15 24 22 25 37 6z"/>
<path d="M94 195 c7 -5 25 -32 40 -59 l28 -48 30 52 c16 28 28 53 26 55 -2 1
-33 5 -70 7 -47 3 -62 1 -54 -7z m83 -39 c-10 -21 -13 -22 -24 -7 -18 24 -16
31 11 31 22 0 23 -2 13 -24z"/>
</g>
</svg>
